# xmcd CD database file
#
# Track frame offsets:
#	150
#	14880
#	39840
#	61027
#	87835
#	112497
#	134992
#	155990
#	183122
#	204745
#	226675
#	246537
#
# Disc length: 3618 seconds
#
# Revision: 1
# Processed by: cddbd v1.5PL3 Copyright (c) Steve Scherf et al.
# Submitted via: CDex 1.51
#
DISCID=b00e200c
DTITLE=Delicious Hip - Delicious Hip
DYEAR=1997
DGENRE=JPop
TTITLE0=Make My Day
TTITLE1=誘惑のハンマー
TTITLE2=I Wanna Try That Love Thang
TTITLE3=Get Real
TTITLE4=ディスコっぽいよね
TTITLE5=私の犬
TTITLE6=はずれくじ
TTITLE7=Life Is A Funcy Train
TTITLE8=Spring Is Here
TTITLE9=Magic Carpet Ride
TTITLE10=はずれくじ(Remix)
TTITLE11=Gonna Make You Love Me ("誘惑のハンマー" English Version)
EXTD=YEAR: 1997
EXTT0=
EXTT1=
EXTT2=
EXTT3=
EXTT4=
EXTT5=
EXTT6=
EXTT7=
EXTT8=
EXTT9=
EXTT10=
EXTT11=
PLAYORDER=
